<svg width="95" height="19" viewBox="0 0 95 19" fill="none" xmlns="http://www.w3.org/2000/svg">
<g id="logo-3">
<path id="Path 6" d="M30.3643 15.4146C29.8869 15.4405 29.4147 15.3048 29.0238 15.0294C28.6923 14.7836 28.5032 14.3903 28.5182 13.9779L28.5182 6.53733C28.5103 6.4735 28.5322 6.40959 28.5777 6.3641C28.6232 6.31862 28.6871 6.29666 28.751 6.30456L30.0994 6.30456C30.2519 6.30456 30.3241 6.38482 30.3241 6.53733V13.4C30.3241 13.705 30.4606 13.8575 30.7415 13.8575C30.8606 13.8624 30.9797 13.8489 31.0947 13.8174C31.2552 13.8174 31.3435 13.8655 31.3515 14.01L31.4719 15.0133C31.4836 15.0725 31.4692 15.1338 31.4322 15.1815C31.3953 15.2292 31.3395 15.2586 31.2793 15.2621C30.9839 15.3597 30.6753 15.4111 30.3643 15.4146Z" fill="white"/>
<path id="Path 7" d="M37.9491 14.5558C36.5515 15.7105 34.5309 15.7105 33.1333 14.5558C31.8937 13.3045 31.8937 11.2882 33.1333 10.0369C34.5331 8.88843 36.5492 8.88843 37.9491 10.0369C39.158 11.2975 39.158 13.2871 37.9491 14.5478L37.9491 14.5558ZM34.4014 13.4963C35.0529 14.0864 36.0456 14.0864 36.697 13.4963C37.2854 12.8197 37.2854 11.8131 36.697 11.1365C36.0456 10.5464 35.0529 10.5464 34.4014 11.1365C33.813 11.813 33.813 12.8197 34.4014 13.4963Z" fill="white"/>
<path id="Path 8" d="M46.2807 9.37875C46.4332 9.37875 46.5055 9.45901 46.5055 9.61152V15.3665C46.5339 16.1531 46.2066 16.9107 45.6145 17.4293C44.9655 17.9827 44.1309 18.2695 43.2788 18.232C42.5092 18.259 41.7498 18.0489 41.1036 17.63C40.5459 17.2637 40.1651 16.6824 40.0522 16.0247C40.0522 15.8642 40.0522 15.7919 40.2689 15.7919H41.6173C41.7343 15.7959 41.838 15.8682 41.8822 15.9765C41.9697 16.2203 42.144 16.4232 42.3718 16.5464C42.6495 16.6897 42.9584 16.7614 43.2708 16.7551C43.6515 16.7759 44.0246 16.6429 44.3062 16.3859C44.5635 16.1169 44.6998 15.7545 44.6835 15.3826V14.8769C44.2006 15.232 43.6131 15.4156 43.0139 15.3986C42.1667 15.4294 41.3435 15.1135 40.7344 14.5237C39.5316 13.2793 39.5316 11.3054 40.7344 10.061C41.3463 9.47656 42.1683 9.16397 43.0139 9.19414C43.6304 9.17785 44.2338 9.37333 44.7236 9.74796L44.7236 9.61954C44.7161 9.55725 44.7371 9.4949 44.7807 9.44977C44.8242 9.40464 44.8858 9.3815 44.9483 9.38677L46.2807 9.37875ZM43.1664 13.9699C43.5851 13.9829 43.9879 13.8094 44.2661 13.4963C44.8149 12.7875 44.8149 11.7972 44.2661 11.0884C43.9888 10.7796 43.5892 10.6092 43.1745 10.6229C42.7511 10.6096 42.3433 10.7827 42.0588 11.0964C41.7632 11.4261 41.6077 11.858 41.6254 12.3004C41.6109 12.7385 41.7629 13.1658 42.0508 13.4963C42.3359 13.8092 42.7433 13.9821 43.1664 13.9699Z" fill="white"/>
<path id="Path 9" d="M53.4323 14.5559C52.0324 15.7043 50.0163 15.7043 48.6164 14.5559C47.4065 13.2925 47.4065 11.3003 48.6164 10.0369C50.0174 8.89165 52.0313 8.89165 53.4323 10.0369C54.6411 11.2976 54.6411 13.2872 53.4323 14.5478V14.5559ZM49.8765 13.4964C50.1873 13.7921 50.6036 13.951 51.0324 13.9378C51.4584 13.9489 51.8713 13.79 52.1801 13.4964C52.7583 12.816 52.7583 11.8169 52.1801 11.1366C51.8713 10.8429 51.4584 10.6841 51.0323 10.6951C50.6036 10.6819 50.1873 10.8409 49.8765 11.1366C49.2983 11.8169 49.2984 12.816 49.8765 13.4964Z" fill="white"/>
<path id="Path 10" d="M57.2368 8.01423C56.798 8.39834 56.1426 8.39834 55.7038 8.01424C55.5094 7.83075 55.3992 7.57523 55.3992 7.3079C55.3992 7.04057 55.5094 6.78506 55.7038 6.60157C56.1464 6.2277 56.7942 6.2277 57.2368 6.60157C57.4313 6.78505 57.5415 7.04056 57.5415 7.3079C57.5415 7.57523 57.4313 7.83075 57.2368 8.01423ZM57.4054 15.4147C56.9283 15.4381 56.4569 15.3026 56.065 15.0294C55.7387 14.7801 55.5532 14.3883 55.5673 13.9779V9.61151C55.5594 9.54767 55.5814 9.48376 55.6269 9.43828C55.6724 9.3928 55.7363 9.37083 55.8001 9.37874H57.1486C57.3011 9.37874 57.3733 9.459 57.3733 9.61151V13.4C57.3733 13.705 57.5098 13.8575 57.7826 13.8575C57.9044 13.8619 58.0261 13.8484 58.1438 13.8174C58.3044 13.8174 58.3927 13.8656 58.4007 14.01L58.5211 15.0133C58.5328 15.0725 58.5183 15.1339 58.4814 15.1816C58.4445 15.2293 58.3887 15.2587 58.3285 15.2622C58.0305 15.3603 57.7191 15.4117 57.4054 15.4147Z" fill="white"/>
<path id="Path 11" d="M63.4814 9.18611C64.3323 9.15248 65.1606 9.46525 65.7769 10.053C66.9545 11.3168 66.9545 13.276 65.7769 14.5398C65.1634 15.1328 64.334 15.449 63.4814 15.4147C62.8803 15.428 62.2913 15.2448 61.8038 14.8929V17.7905C61.8038 17.943 61.7236 18.0152 61.5711 18.0152H60.2226C60.1601 18.0269 60.0959 18.007 60.051 17.9621C60.0061 17.9172 59.9862 17.853 59.9979 17.7905L59.9979 11.2088C60.017 11.0782 59.9733 10.9463 59.88 10.853C59.7867 10.7598 59.6548 10.7161 59.5243 10.7352H59.2594C59.0828 10.7352 58.9945 10.671 58.9945 10.5426V9.59546C58.986 9.47469 59.0629 9.36433 59.1792 9.33058C59.4568 9.22966 59.7507 9.18068 60.046 9.18611C60.6486 9.13277 61.2232 9.45027 61.4988 9.98875C62.0213 9.4602 62.7383 9.16992 63.4814 9.18611ZM62.2292 13.4963C62.5184 13.7986 62.9186 13.9695 63.3369 13.9695C63.7552 13.9695 64.1553 13.7986 64.4445 13.4963C64.746 13.1601 64.9044 12.7195 64.886 12.2683C64.907 11.8167 64.7483 11.3751 64.4445 11.0402C64.1553 10.738 63.7552 10.5671 63.3369 10.5671C62.9186 10.5671 62.5184 10.738 62.2292 11.0402C61.9372 11.381 61.7852 11.8199 61.8038 12.2683C61.7875 12.7164 61.9393 13.1544 62.2292 13.4963Z" fill="white"/>
<path id="Path 12" d="M70.4485 15.4146C69.7279 15.4442 69.0135 15.2719 68.3857 14.917C67.8754 14.6096 67.5328 14.0868 67.4546 13.4963C67.4546 13.3357 67.5108 13.2555 67.6874 13.2555H68.8673C68.9817 13.2599 69.084 13.3281 69.1321 13.4321C69.3007 13.8655 69.7421 14.0822 70.4485 14.0822C70.6948 14.0935 70.9402 14.0438 71.1628 13.9377C71.3194 13.867 71.4243 13.7158 71.4357 13.5444C71.4357 13.3357 71.3073 13.1913 71.0505 13.0949C70.7458 12.9935 70.4308 12.9262 70.1114 12.8943C69.7329 12.8514 69.3576 12.7844 68.9877 12.6936C68.6279 12.6122 68.3008 12.4249 68.0486 12.1558C67.7482 11.7862 67.6149 11.3085 67.6803 10.8367C67.7457 10.365 68.0041 9.94157 68.3937 9.66763C68.9722 9.29909 69.651 9.11957 70.3361 9.15393C70.9994 9.1315 71.6557 9.29557 72.2304 9.6275C72.6994 9.89316 73.0237 10.3561 73.1133 10.8877C73.1133 11.0482 73.041 11.1285 72.8966 11.1285H71.7086C71.6063 11.1345 71.5107 11.0772 71.4678 10.984C71.3885 10.7939 71.239 10.6416 71.0505 10.5586C70.8378 10.4473 70.6002 10.392 70.3602 10.398C70.1249 10.3852 69.8902 10.4322 69.6779 10.5345C69.5249 10.5935 69.4232 10.7397 69.4211 10.9037C69.4316 11.129 69.5879 11.3211 69.8064 11.3773C70.1146 11.4934 70.435 11.5742 70.7615 11.6181C71.1369 11.6675 71.5093 11.7371 71.8772 11.8267C72.2369 11.9082 72.564 12.0955 72.8163 12.3645C73.0889 12.6639 73.2305 13.0598 73.2096 13.4642C73.2237 14.0286 72.9402 14.5589 72.4631 14.8608C71.8634 15.2457 71.1607 15.4389 70.4485 15.4146Z" fill="white"/>
<path id="Path 13" d="M81.6936 15.0134C81.7028 15.071 81.6883 15.1298 81.6536 15.1766C81.6189 15.2234 81.5667 15.2543 81.509 15.2622C81.2159 15.3579 80.9102 15.4093 80.602 15.4147C79.9816 15.479 79.3727 15.2141 78.9967 14.7164C78.4297 15.2039 77.6966 15.454 76.9499 15.4147C76.2489 15.447 75.5668 15.1818 75.0717 14.6843C74.5805 14.1635 74.3226 13.465 74.3574 12.7499V9.61155C74.3574 9.45905 74.4296 9.37878 74.5821 9.37878H75.9306C76.0831 9.37878 76.1553 9.45905 76.1553 9.61155V12.5091C76.1406 12.8701 76.264 13.2232 76.5004 13.4964C76.7391 13.7496 77.0757 13.8872 77.4235 13.8736C77.7788 13.8892 78.1256 13.762 78.3867 13.5205C78.6339 13.2657 78.7647 12.9199 78.7479 12.5653L78.7479 9.61155C78.7479 9.45905 78.8201 9.37878 78.9726 9.37878H80.3371C80.4896 9.37878 80.5618 9.45905 80.5618 9.61155V13.392C80.5618 13.7051 80.6983 13.8576 80.9632 13.8576C81.0875 13.8624 81.212 13.8489 81.3324 13.8174C81.3939 13.8002 81.4599 13.8121 81.5115 13.8496C81.5631 13.8872 81.5947 13.9463 81.5973 14.0101L81.6936 15.0134Z" fill="white"/>
<path id="Path 14" d="M94.4476 15.0134C94.4621 15.0716 94.4498 15.1332 94.414 15.1814C94.3783 15.2295 94.3229 15.2592 94.263 15.2622C93.9647 15.3592 93.6535 15.4107 93.3399 15.4147C92.8627 15.4393 92.3909 15.3037 91.9995 15.0294C91.6558 14.7908 91.4541 14.3963 91.4617 13.978V12.0917C91.4786 11.7318 91.3581 11.3789 91.1246 11.1045C90.8966 10.8505 90.5667 10.712 90.2257 10.7272C89.9181 10.7156 89.6222 10.8458 89.423 11.0804C89.2111 11.3494 89.1029 11.6855 89.118 12.0275L89.118 14.9893C89.118 15.1418 89.0458 15.2221 88.8933 15.2221H87.5368C87.4729 15.23 87.409 15.208 87.3636 15.1625C87.3181 15.1171 87.2961 15.0531 87.304 14.9893V12.0917C87.3216 11.7358 87.2104 11.3853 86.991 11.1045C86.7929 10.8656 86.4987 10.7274 86.1883 10.7272C85.8572 10.7139 85.536 10.8423 85.3054 11.0804C85.0758 11.3408 84.9577 11.6809 84.9763 12.0275L84.9763 14.9893C84.9842 15.0531 84.9623 15.1171 84.9168 15.1625C84.8713 15.208 84.8074 15.23 84.7436 15.2221L83.4353 15.2221C83.2827 15.2221 83.2105 15.1418 83.2105 14.9893V11.2088C83.2297 11.0783 83.186 10.9464 83.0927 10.8531C82.9994 10.7598 82.8675 10.7161 82.737 10.7353L82.4721 10.7353C82.2955 10.7353 82.2072 10.6711 82.2072 10.5426V9.59551C82.1986 9.47474 82.2756 9.36438 82.3918 9.33063C82.6694 9.22971 82.9633 9.18073 83.2587 9.18616C83.8373 9.13686 84.3929 9.42403 84.6874 9.92459C85.2348 9.40576 85.9734 9.13822 86.7261 9.18616C87.4596 9.15035 88.1661 9.46637 88.6284 10.037C89.1663 9.45234 89.9382 9.14003 90.7313 9.18616C91.4396 9.15301 92.1295 9.41789 92.6336 9.91656C93.1264 10.4364 93.3846 11.1356 93.3479 11.851V13.4001C93.3479 13.7051 93.4844 13.8576 93.7412 13.8576C93.8657 13.8634 93.9902 13.8498 94.1105 13.8174C94.2763 13.8174 94.3646 13.8817 94.3753 14.0101L94.4476 15.0134Z" fill="white"/>
<path id="Path 15" d="M0.329084 8.33529C1.54757 3.43779 5.94548 0 10.9923 0C16.0391 0 20.437 3.43779 21.6555 8.33529H20.6923C19.0675 8.31136 17.476 8.79695 16.1413 9.72387C16.0642 9.77964 15.9838 9.83057 15.9005 9.87637L15.7881 9.87638C15.7047 9.83057 15.6243 9.77964 15.5473 9.72387C12.793 7.87177 9.19152 7.87177 6.43724 9.72387C6.36021 9.77964 6.27979 9.83057 6.19645 9.87637L6.08408 9.87638C6.00073 9.83057 5.92031 9.77964 5.84328 9.72387C4.50858 8.79695 2.91708 8.31136 1.29226 8.33529H0.329084ZM18.9586 13.3679C19.453 12.9828 20.0658 12.7814 20.6923 12.798H21.9845V10.2215H20.6923C19.5888 10.2082 18.5106 10.5516 17.6181 11.2007C16.5873 11.9608 15.1816 11.9608 14.1507 11.2007C12.2765 9.8961 9.78828 9.8961 7.91412 11.2007C6.88324 11.9608 5.47755 11.9608 4.44667 11.2007C3.54321 10.5433 2.44952 10.1994 1.3324 10.2215H0V12.798H1.29226C1.91874 12.7814 2.53154 12.9828 3.02598 13.3679C4.89691 14.6735 7.38361 14.6735 9.25454 13.3679C9.74961 12.984 10.362 12.7827 10.9883 12.798C11.6149 12.7801 12.2282 12.9816 12.722 13.3679C14.5961 14.6725 17.0844 14.6726 18.9586 13.3679ZM18.9586 17.9751C19.453 17.59 20.0658 17.3886 20.6923 17.4052H21.9845V14.8287H20.6923C19.5888 14.8154 18.5106 15.1588 17.6181 15.808C16.5873 16.568 15.1816 16.568 14.1507 15.808C12.2765 14.5033 9.78828 14.5033 7.91412 15.808C6.88324 16.568 5.47755 16.568 4.44667 15.808C3.54321 15.1505 2.44952 14.8066 1.3324 14.8287H0V17.4052H1.29226C1.91874 17.3886 2.53154 17.59 3.02598 17.9751C4.89691 19.2807 7.38361 19.2807 9.25454 17.9751C9.74961 17.5912 10.362 17.3899 10.9883 17.4052C11.6149 17.3873 12.2282 17.5888 12.722 17.9751C14.5961 19.2798 17.0844 19.2798 18.9586 17.9751Z" fill="white"/>
</g>
</svg>
