<svg width="105" height="24" viewBox="0 0 105 24" fill="none" xmlns="http://www.w3.org/2000/svg">
<g id="logo-6">
<path id="Path 16" d="M25.1992 5.49817H27.6072V17.0965H25.1992V5.49817Z" fill="white"/>
<path id="Path 17" d="M28.9555 13.1234C28.9555 11.4169 29.9847 9.87884 31.5623 9.22801C33.14 8.57719 34.9543 8.94215 36.1576 10.1523C37.3608 11.3625 37.7154 13.1789 37.0555 14.7527C36.3957 16.3266 34.8518 17.347 33.1453 17.3373C32.0272 17.346 30.9528 16.9041 30.1644 16.1112C29.3761 15.3183 28.9403 14.2414 28.9555 13.1234ZM34.9914 13.1234C34.9649 12.1194 34.1343 11.3243 33.1301 11.3418C32.1259 11.3593 31.3234 12.1828 31.332 13.1872C31.3406 14.1915 32.157 15.0012 33.1613 15.0016C33.6566 15.0112 34.1336 14.8143 34.4778 14.4579C34.8219 14.1016 35.0022 13.6181 34.9753 13.1234H34.9914Z" fill="white"/>
<path id="Path 18" d="M46.8628 9.15021V16.7031C46.8628 19.3679 44.7759 20.4997 42.6649 20.4997C41.1461 20.6243 39.6878 19.8781 38.9005 18.5733L40.9312 17.4014C41.2682 18.0808 41.9906 18.4804 42.7452 18.4047C43.2205 18.4633 43.6971 18.3066 44.0449 17.9774C44.3927 17.6482 44.5754 17.1809 44.5431 16.7031V15.9727C43.975 16.6616 43.1154 17.0423 42.2234 17.0001C40.007 17.0001 38.2102 15.2033 38.2102 12.9869C38.2102 10.7704 40.007 8.97363 42.2234 8.97363C43.1154 8.93145 43.975 9.31218 44.5431 10.001L44.5431 9.19837L46.8628 9.15021ZM44.5431 12.9628C44.5759 12.1772 44.1279 11.4505 43.4113 11.1269C42.6946 10.8033 41.8533 10.9477 41.2856 11.4917C40.7179 12.0358 40.5378 12.8702 40.8307 13.6C41.1235 14.3297 41.8304 14.8082 42.6167 14.8089C43.1239 14.8454 43.6228 14.6655 43.9899 14.3137C44.3571 13.9619 44.558 13.4711 44.5431 12.9628Z" fill="white"/>
<path id="Path 19" d="M48.219 13.1233C48.219 10.795 50.1073 8.90795 52.4356 8.90942C54.7639 8.91091 56.6498 10.8004 56.6468 13.1287C56.6439 15.457 54.7532 17.3417 52.4249 17.3372C51.3047 17.3481 50.2274 16.9074 49.4361 16.1145C48.6447 15.3216 48.206 14.2435 48.219 13.1233ZM54.2549 13.1233C54.2285 12.1183 53.3962 11.3228 52.391 11.3418C51.3857 11.3608 50.5841 12.1872 50.5956 13.1925C50.6072 14.1978 51.4276 15.0056 52.4329 15.0015C52.9282 15.0112 53.4052 14.8142 53.7494 14.4579C54.0935 14.1015 54.2738 13.618 54.2469 13.1233H54.2549Z" fill="white"/>
<path id="Path 20" d="M57.7466 7.0232C57.7466 6.23414 58.3862 5.59448 59.1753 5.59448C59.9644 5.59448 60.604 6.23414 60.604 7.0232C60.604 7.81226 59.9644 8.45191 59.1753 8.45191C58.3899 8.44323 57.7553 7.80863 57.7466 7.0232ZM57.9794 9.15022H60.3873V17.0965H57.9794V9.15022Z" fill="white"/>
<path id="Path 21" d="M70.6933 13.1233C70.7478 14.1907 70.3744 15.2357 69.6556 16.0267C68.9369 16.8177 67.9324 17.2894 66.8647 17.3372C65.956 17.3977 65.0693 17.04 64.4568 16.366L64.4568 20.2909H62.0488V9.15018H64.4568V9.89664C65.0701 9.22457 65.9571 8.86978 66.8647 8.93346C69.079 9.03318 70.7931 10.909 70.6933 13.1233ZM68.2854 13.1233C68.2589 12.0828 67.3979 11.2585 66.3572 11.2775C65.3165 11.2965 64.4861 12.1517 64.4976 13.1925C64.5092 14.2333 65.3583 15.0698 66.3992 15.0657C66.9158 15.0876 67.4172 14.888 67.7774 14.5171C68.1377 14.1461 68.3225 13.639 68.2854 13.1233Z" fill="white"/>
<path id="Path 22" d="M78.0214 14.7125C78.0214 16.5425 76.4161 17.3211 74.7145 17.3211C73.2944 17.4489 71.9399 16.6985 71.2952 15.4269L73.366 14.255C73.5351 14.8452 74.0939 15.2368 74.7064 15.1941C75.2763 15.1941 75.5653 15.0175 75.5653 14.6965C75.5653 13.8216 71.6564 14.2871 71.6564 11.534C71.6564 9.8003 73.1172 8.93343 74.7706 8.93343C76.0511 8.87609 77.2597 9.52661 77.917 10.627L75.8462 11.7186C75.6593 11.2956 75.2411 11.0221 74.7787 11.0203C74.3613 11.0203 74.1125 11.1809 74.1125 11.4618C74.1125 12.3768 78.0214 11.7748 78.0214 14.7125Z" fill="white"/>
<path id="Path 23" d="M86.7462 9.15015V17.0964H84.3382V16.3499C83.7835 17.02 82.9433 17.3865 82.0748 17.3372C80.4695 17.3372 79.0969 16.1894 79.0969 14.0463V9.15015H81.5049V13.6851C81.4666 14.0688 81.5984 14.45 81.8656 14.7281C82.1329 15.0061 82.5085 15.153 82.8935 15.1299C83.7603 15.1299 84.3703 14.6162 84.3703 13.5246V9.15015H86.7462Z" fill="white"/>
<path id="Path 24" d="M100.391 12.2163V17.0964H97.9833V12.425C97.9833 11.6224 97.606 11.1247 96.8435 11.1247C96.081 11.1247 95.5994 11.6785 95.5994 12.6176V17.0964H93.1915V12.425C93.1915 11.6224 92.8142 11.1247 92.0517 11.1247C91.2892 11.1247 90.8076 11.6785 90.8076 12.6176V17.0964H88.3997V9.1502H90.8076V9.8806C91.314 9.22505 92.1168 8.86894 92.9426 8.93348C93.7711 8.89027 94.5611 9.28678 95.0215 9.97692C95.5592 9.25651 96.429 8.86251 97.3251 8.93348C99.2033 8.93348 100.391 10.2338 100.391 12.2163Z" fill="white"/>
<path id="Path 25" d="M11.7543 3.41126V0H0.998779V23.4374H11.7543V20.0261C7.16621 20.0261 3.44686 16.3067 3.44686 11.7187C3.44686 7.13062 7.16621 3.41126 11.7543 3.41126Z" fill="white"/>
<path id="Path 26" d="M10.8557 3.41125V20.0261C15.4438 20.0261 19.1631 16.3067 19.1631 11.7187C19.1631 7.13062 15.4438 3.41125 10.8557 3.41125Z" fill="white"/>
<ellipse id="Ellipse 1" cx="102.414" cy="7.33626" rx="1.76583" ry="1.76583" fill="white"/>
</g>
</svg>
