<svg width="102" height="24" viewBox="0 0 102 24" fill="none" xmlns="http://www.w3.org/2000/svg">
<g id="logo-1">
<path id="Path 4" d="M29 7.71439H31.5765V18.1488H29V7.71439ZM32.6039 14.2239C32.6039 11.6393 34.2092 10.0902 36.6171 10.0902C39.0251 10.0902 40.6304 11.6393 40.6304 14.2239C40.6304 16.8084 39.0813 18.3736 36.6171 18.3736C34.153 18.3736 32.6039 16.8646 32.6039 14.2239ZM38.078 14.2239C38.078 12.8032 37.5241 11.9684 36.6412 11.9684C35.7583 11.9684 35.2125 12.7711 35.2125 14.2239C35.2125 15.6767 35.7583 16.4713 36.6412 16.4713C37.5241 16.4713 38.094 15.6767 38.094 14.2319L38.078 14.2239ZM41.6578 18.6866H44.146C44.3788 19.2371 44.9497 19.5653 45.5426 19.4893C46.5298 19.4893 47.0435 18.9595 47.0435 18.1729V16.7281H47.0516C46.6164 17.649 45.6594 18.2072 44.6436 18.1328C42.7574 18.1328 41.5053 16.696 41.5053 14.2239C41.5053 11.7517 42.7012 10.2106 44.7158 10.2106C45.7589 10.1548 46.7238 10.7627 47.1238 11.7276L47.0516 11.7276V10.2748H49.604V18.0926C49.604 19.9789 47.9345 21.1588 45.4784 21.1588C43.247 21.1507 41.8183 20.1314 41.6738 18.6946L41.6578 18.6866ZM47.0516 14.2239C47.0516 12.9637 46.4737 12.1691 45.5586 12.1691C44.6436 12.1691 44.0818 12.9717 44.0818 14.2239C44.0818 15.476 44.6356 16.2144 45.5586 16.2144C46.4817 16.2144 47.0516 15.5322 47.0516 14.2239ZM50.6233 14.2239C50.6233 11.6393 52.2286 10.0902 54.6366 10.0902C57.0445 10.0902 58.6498 11.6393 58.6498 14.2239C58.6498 16.8084 57.0927 18.3736 54.6366 18.3736C52.1805 18.3736 50.6394 16.8646 50.6394 14.2239H50.6233ZM56.0974 14.2239C56.0974 12.8032 55.5356 11.9684 54.6607 11.9684C53.7858 11.9684 53.232 12.7711 53.232 14.2239C53.232 15.6767 53.7778 16.4713 54.6607 16.4713C55.5436 16.4713 56.1135 15.6767 56.1135 14.2319L56.0974 14.2239ZM59.6933 8.37256C59.6703 7.83563 59.9761 7.33867 60.4657 7.11711C60.9553 6.89554 61.5305 6.99387 61.9187 7.36551C62.3069 7.73714 62.4302 8.30745 62.2302 8.80627C62.0302 9.30509 61.547 9.63223 61.0096 9.63272C60.6705 9.64134 60.3421 9.51374 60.0977 9.27845C59.8534 9.04316 59.7135 8.71978 59.7093 8.38059L59.6933 8.37256ZM59.6933 10.2668H62.3019V18.1809H59.7334L59.6933 10.2668ZM71.6848 14.2239C71.6848 16.8004 70.529 18.2933 68.5625 18.2933C67.5313 18.3569 66.5699 17.7705 66.1546 16.8245L66.1064 16.8245V20.7253H63.5299V10.2909H66.0904V11.7036H66.1385C66.5398 10.7387 67.5027 10.1289 68.5465 10.1785C70.5692 10.1625 71.733 11.6474 71.733 14.2319L71.6848 14.2239ZM69.0602 14.2239C69.0602 12.9717 68.4742 12.1611 67.5673 12.1611C66.6603 12.1611 66.0904 12.9637 66.0824 14.2239C66.0743 15.484 66.6603 16.2787 67.5673 16.2787C68.4742 16.2787 69.1083 15.5322 69.1083 14.2319L69.0602 14.2239ZM76.0834 10.0822C78.2425 10.0822 79.5829 11.1016 79.5989 12.739H77.2472C77.2472 12.1691 76.7736 11.8159 76.0673 11.8159C75.361 11.8159 75.0239 12.0888 75.0239 12.4982C75.0239 12.9075 75.3208 13.036 75.9148 13.1564L77.5682 13.4935C79.1735 13.8306 79.8157 14.4727 79.8157 15.6686C79.8157 17.2739 78.3308 18.3655 76.1235 18.3655C73.9162 18.3655 72.4795 17.306 72.3751 15.6927H74.8714C74.9436 16.2787 75.4091 16.6238 76.1636 16.6238C76.9181 16.6238 77.2713 16.383 77.2713 15.9576C77.2713 15.5322 77.0305 15.46 76.4124 15.3315L74.9195 15.0185C73.3704 14.6894 72.5597 13.8787 72.5597 12.6667C72.6079 11.0935 73.9563 10.0902 76.1315 10.0902L76.0834 10.0822ZM88.4441 18.1729H85.9479V16.688H85.8997C85.6119 17.7082 84.6546 18.3921 83.5961 18.3334C82.8115 18.359 82.0532 18.0483 81.5121 17.4796C80.9709 16.9108 80.6983 16.138 80.7628 15.3556V10.2748H83.3393V14.8018C83.3393 15.7329 83.8289 16.2385 84.6316 16.2385C85.0126 16.2357 85.3736 16.0678 85.6215 15.7784C85.8693 15.489 85.9796 15.1065 85.9238 14.7295V10.2748H88.4923L88.4441 18.1729ZM89.6883 10.2668H92.1925V11.7919H92.2487C92.5333 10.7871 93.4601 10.1011 94.5041 10.1223C95.5602 10.0305 96.5128 10.7571 96.7034 11.7999L96.8158 11.7999C97.1456 10.7597 98.1337 10.0713 99.2237 10.1223C99.9364 10.0952 100.627 10.3732 101.122 10.8866C101.617 11.4 101.869 12.1 101.816 12.8112V18.1809H99.2237V13.4694C99.2237 12.6667 98.8465 12.2173 98.1161 12.2173C97.7882 12.2119 97.4744 12.3499 97.2569 12.5952C97.0393 12.8405 96.9398 13.1686 96.9843 13.4935V18.1809H94.5282V13.4453C94.5282 12.6427 94.1349 12.2173 93.4286 12.2173C93.0974 12.2146 92.7812 12.3552 92.5613 12.6028C92.3414 12.8504 92.2391 13.181 92.2808 13.5095L92.2808 18.1809H89.7043L89.6883 10.2668Z" fill="white"/>
<path id="Path 5" d="M23.7905 7.93092C23.7905 4.66086 21.7837 1.72637 18.7367 0.540404C15.6901 -0.645566 12.2276 0.159983 10.0171 2.56922H0V23.711H21.1498V13.8304C22.8287 12.3287 23.789 10.1834 23.7905 7.93092ZM19.7211 7.93092C19.7255 10.0686 17.9954 11.8048 15.8577 11.8077C13.72 11.8107 11.985 10.0793 11.9835 7.94163C11.9821 5.80392 13.7146 4.07018 15.8523 4.07017C17.9858 4.07017 19.7166 5.79739 19.7211 7.93092ZM17.0804 19.6416H4.06943V6.63865H8.03451C7.95791 7.06523 7.91764 7.49753 7.91411 7.93092C7.91854 12.3132 11.47 15.8647 15.8523 15.8691C16.2638 15.8669 16.6744 15.8321 17.0804 15.7648L17.0804 19.6416Z" fill="white"/>
</g>
</svg>
